<svg width="500" height="500" viewBox="0 0 500 500" fill="none" xmlns="http://www.w3.org/2000/svg">
<path d="M404.113 226.664L402.863 226.785L404.489 243.702L405.739 243.582L404.113 226.664Z" fill="#407BFF"/>
<path d="M406.331 249.47L405.081 249.59L405.737 256.418L406.987 256.298L406.331 249.47Z" fill="#407BFF"/>
<path d="M104.651 396L413.142 366.35L395.491 182.702L87 212.352L104.651 396Z" fill="#407BFF"/>
<path opacity="0.1" d="M104.651 396L413.142 366.35L395.491 182.702L87 212.352L104.651 396Z" fill="black"/>
<path opacity="0.1" d="M250.879 297.697L87.0015 212.349L395.487 182.693L250.879 297.697Z" fill="#263238"/>
<path d="M213.544 111.723L87.0013 212.349L395.487 182.693L252.094 108.023C245.999 104.847 239.113 103.506 232.271 104.163C225.429 104.819 218.924 107.446 213.544 111.723Z" fill="#407BFF"/>
<path opacity="0.2" d="M384.029 183.803L247.786 112.846C243.189 110.45 237.996 109.437 232.835 109.932C227.675 110.427 222.769 112.408 218.711 115.635L98.4464 211.239L384.029 183.803Z" fill="#263238"/>
<path d="M327.055 181.543L368.804 192.697L369.809 203.111L250.879 297.697L116.103 227.508L114.094 206.679L327.055 181.543Z" fill="white"/>
<path d="M327.055 181.543L334.945 203.402L368.804 192.697" fill="#E0E0E0"/>
<path d="M327.055 181.543L331.112 199.569L368.804 192.697" fill="#F0F0F0"/>
<path d="M275.526 278.059L413.144 366.354L104.658 395.997L222.927 283.107C229.86 276.493 238.815 272.399 248.353 271.484C257.892 270.568 267.461 272.884 275.526 278.059Z" fill="#407BFF"/>
</svg>
